<?xml version="1.0" encoding="UTF-8" standalone="no"?>
<svg
   width="256"
   height="256"
   viewBox="0 0 256 256"
   fill="none"
   version="1.1"
   id="svg6"
   sodipodi:docname="fedora-logo-sprite-no blur.svg"
   xmlns:inkscape="http://www.inkscape.org/namespaces/inkscape"
   xmlns:sodipodi="http://sodipodi.sourceforge.net/DTD/sodipodi-0.dtd"
   xmlns="http://www.w3.org/2000/svg"
   xmlns:svg="http://www.w3.org/2000/svg">
  <sodipodi:namedview
     id="namedview6"
     pagecolor="#505050"
     bordercolor="#eeeeee"
     borderopacity="1"
     inkscape:showpageshadow="0"
     inkscape:pageopacity="0"
     inkscape:pagecheckerboard="0"
     inkscape:deskcolor="#505050" />
  <g
     clip-path="url(#clip0_516_30)"
     id="g2">
    <g
       filter="url(#filter0_d_516_30)"
       id="g1">
      <path
         d="M 0,60.8 C 0,27.2211 27.2211,0 60.8,0 H 195.2 C 228.779,0 256,27.2211 256,60.8 v 134.4 c 0,33.579 -27.221,60.8 -60.8,60.8 H 60.8 C 27.2211,256 0,228.779 0,195.2 Z"
         fill="url(#paint0_linear_516_30)"
         id="path1"
         style="fill:url(#paint0_linear_516_30)" />
    </g>
    <path
       d="m 203.084,232.25 h -32.5 v -89.625 c 0,-4.25 -1.084,-7.458 -3.25,-9.625 -2.167,-2.25 -5.417,-3.375 -9.75,-3.375 H 98.9587 v -32.5 h 58.6253 c 3.083,0 6.333,0.375 9.75,1.125 3.416,0.6667 6.791,1.75 10.125,3.25 3.416,1.5 6.666,3.4583 9.75,5.875 3.083,2.333 5.791,5.208 8.125,8.625 2.333,3.333 4.208,7.208 5.625,11.625 1.416,4.417 2.125,9.417 2.125,15 z m -117.2503,0 h -32.5 V 40 h 32.5 z"
       fill="white"
       fill-opacity="0.8"
       id="path6"
       style="opacity:0.1;fill:#000000;fill-opacity:0.8;filter:url(#filter6)" />
    <path
       d="m 203.084,224.25 h -32.5 v -89.625 c 0,-4.25 -1.084,-7.458 -3.25,-9.625 -2.167,-2.25 -5.417,-3.375 -9.75,-3.375 H 98.9587 v -32.5 h 58.6253 c 3.083,0 6.333,0.375 9.75,1.125 3.416,0.6667 6.791,1.75 10.125,3.25 3.416,1.5 6.666,3.4583 9.75,5.875 3.083,2.333 5.791,5.208 8.125,8.625 2.333,3.333 4.208,7.208 5.625,11.625 1.416,4.417 2.125,9.417 2.125,15 z m -117.2503,0 h -32.5 V 32 h 32.5 z"
       fill="#ffffff"
       fill-opacity="0.8"
       id="path2"
       style="opacity:0.8" />
  </g>
  <defs
     id="defs6">
    <filter
       id="filter0_d_516_30"
       x="-16"
       y="0"
       width="288"
       height="288"
       filterUnits="userSpaceOnUse"
       color-interpolation-filters="sRGB">
      <feFlood
         flood-opacity="0"
         result="BackgroundImageFix"
         id="feFlood2" />
      <feColorMatrix
         in="SourceAlpha"
         type="matrix"
         values="0 0 0 0 0 0 0 0 0 0 0 0 0 0 0 0 0 0 127 0"
         result="hardAlpha"
         id="feColorMatrix2" />
      <feOffset
         dy="16"
         id="feOffset2" />
      <feGaussianBlur
         stdDeviation="8"
         id="feGaussianBlur2" />
      <feComposite
         in2="hardAlpha"
         operator="out"
         id="feComposite2" />
      <feColorMatrix
         type="matrix"
         values="0 0 0 0 0 0 0 0 0 0 0 0 0 0 0 0 0 0 0.1 0"
         id="feColorMatrix3" />
      <feBlend
         mode="normal"
         in2="BackgroundImageFix"
         result="effect1_dropShadow_516_30"
         id="feBlend3" />
      <feBlend
         mode="normal"
         in="SourceGraphic"
         in2="effect1_dropShadow_516_30"
         result="shape"
         id="feBlend4" />
    </filter>
    <linearGradient
       id="paint0_linear_516_30"
       x1="0"
       y1="0"
       x2="256"
       y2="256"
       gradientUnits="userSpaceOnUse">
      <stop
         stop-color="#5BB0FF"
         id="stop4" />
      <stop
         offset="0.5"
         stop-color="#0085FF"
         id="stop5" />
      <stop
         offset="1"
         stop-color="#005CB0"
         id="stop6" />
    </linearGradient>
    <clipPath
       id="clip0_516_30">
      <rect
         width="256"
         height="256"
         fill="#ffffff"
         id="rect6"
         x="0"
         y="0" />
    </clipPath>
    <filter
       inkscape:collect="always"
       style="color-interpolation-filters:sRGB"
       id="filter6"
       x="-0.035079227"
       y="-0.027324446"
       width="1.0701585"
       height="1.0546489">
      <feGaussianBlur
         inkscape:collect="always"
         stdDeviation="2.1888019"
         id="feGaussianBlur6" />
    </filter>
  </defs>
</svg>
